<svg width="48" height="48" viewBox="0 0 48 48" fill="none" xmlns="http://www.w3.org/2000/svg">
<path d="M12 24C12 27.3137 14.6863 30 18 30H24V18H18C14.6863 18 12 20.6863 12 24Z" fill="#0ACF83"/>
<path d="M24 12H18C14.6863 12 12 14.6863 12 18V24H24V12Z" fill="#A259FF"/>
<path d="M24 30H18C14.6863 30 12 32.6863 12 36C12 39.3137 14.6863 42 18 42H24V30Z" fill="#F24E1E"/>
<path d="M30 24C30 20.6863 27.3137 18 24 18H12V24H24C27.3137 24 30 26.6863 30 30V36H42V30C42 26.6863 39.3137 24 36 24H30Z" fill="#FF7262"/>
<path d="M42 18C42 14.6863 39.3137 12 36 12H30V24H42V18Z" fill="#1ABCFF"/>
</svg>
